<svg width="112" height="19" viewBox="0 0 112 19" fill="none" xmlns="http://www.w3.org/2000/svg">
<rect x="0.25" y="0.25" width="26.1359" height="18.0789" rx="1.71491" fill="white" stroke="#E5E5E5" stroke-width="0.5"/>
<path d="M11.4681 12.2797H10.0186L10.9252 6.67383H12.3746L11.4681 12.2797Z" fill="#142EBD"/>
<path d="M16.7222 6.81093C16.4363 6.6975 15.9828 6.57227 15.4221 6.57227C13.9906 6.57227 12.9826 7.33558 12.9764 8.4269C12.9645 9.23207 13.6981 9.67928 14.2468 9.94775C14.8076 10.2221 14.9982 10.4011 14.9982 10.6457C14.9925 11.0212 14.5451 11.1944 14.1278 11.1944C13.549 11.1944 13.239 11.1051 12.7677 10.8962L12.5769 10.8066L12.374 12.065C12.714 12.2199 13.3403 12.3573 13.9906 12.3633C15.5116 12.3633 16.5017 11.6118 16.5135 10.4489C16.5193 9.81071 16.1319 9.32172 15.2968 8.92215C14.7898 8.66565 14.4793 8.49269 14.4793 8.23025C14.4852 7.99166 14.7419 7.74729 15.3142 7.74729C15.7854 7.73532 16.1316 7.84859 16.3939 7.96193L16.525 8.02146L16.7222 6.81093Z" fill="#142EBD"/>
<path d="M18.6489 10.2938C18.7683 9.97172 19.2276 8.72528 19.2276 8.72528C19.2216 8.73725 19.3467 8.39728 19.4183 8.18858L19.5196 8.67162C19.5196 8.67162 19.7941 10.0135 19.8537 10.2938C19.6272 10.2938 18.9352 10.2938 18.6489 10.2938ZM20.4381 6.67383H19.3169C18.9712 6.67383 18.7085 6.77513 18.5593 7.13895L16.4062 12.2797H17.9272C17.9272 12.2797 18.1776 11.5878 18.2314 11.4387C18.3983 11.4387 19.8778 11.4387 20.0925 11.4387C20.1341 11.6356 20.2654 12.2797 20.2654 12.2797H21.6075L20.4381 6.67383Z" fill="#142EBD"/>
<path d="M8.80724 6.67383L7.38769 10.4965L7.23257 9.72124C6.97012 8.82666 6.14704 7.85471 5.22852 7.37144L6.52877 12.2738H8.0616L10.34 6.67383H8.80724Z" fill="#142EBD"/>
<path d="M6.06985 6.67383H3.73773L3.71387 6.7871C5.53307 7.2523 6.7379 8.37366 7.2329 9.72148L6.72593 7.14506C6.64246 6.78702 6.38596 6.68564 6.06985 6.67383Z" fill="#142EBD"/>
<rect x="29.0654" y="0.5" width="25.6359" height="17.5789" rx="1.46491" fill="black"/>
<path d="M45.3086 4.16211C48.0688 4.16212 50.3064 6.42553 50.3066 9.21777C50.3066 12.0102 48.069 14.2744 45.3086 14.2744C44.071 14.2744 42.9393 13.8182 42.0664 13.0645C41.1935 13.8182 40.0618 14.2744 38.8242 14.2744C36.0639 14.2744 33.8262 12.0102 33.8262 9.21777C33.8264 6.42558 36.064 4.16214 38.8242 4.16211C40.0616 4.16211 41.1935 4.6176 42.0664 5.37109C42.9393 4.61757 44.0712 4.16211 45.3086 4.16211Z" fill="#ED0006"/>
<path d="M45.3086 4.16211C48.0688 4.16212 50.3064 6.42553 50.3066 9.21777C50.3066 12.0102 48.069 14.2744 45.3086 14.2744C44.071 14.2744 42.9393 13.8182 42.0664 13.0645C43.1405 12.1371 43.8223 10.7583 43.8223 9.21777C43.8222 7.67724 43.1407 6.2984 42.0664 5.37109C42.9393 4.61757 44.0712 4.16211 45.3086 4.16211Z" fill="#F9A000"/>
<path d="M42.0664 5.37109C43.1408 6.29848 43.8223 7.678 43.8223 9.21875C43.8222 10.7591 43.1404 12.1371 42.0664 13.0645C40.9925 12.1371 40.3106 10.759 40.3105 9.21875C40.3105 7.67807 40.9921 6.29848 42.0664 5.37109Z" fill="#FF5E00"/>
<mask id="mask0_501_2581" style="mask-type:alpha" maskUnits="userSpaceOnUse" x="57" y="0" width="27" height="19">
<rect x="57.6318" y="0.5" width="25.6359" height="17.5789" fill="#016FD0"/>
</mask>
<g mask="url(#mask0_501_2581)">
<rect x="57.6318" y="0.5" width="25.6359" height="17.5789" rx="1.46491" fill="#016FD0"/>
<path d="M62.6182 13.9491V9.91602H66.8885L67.3466 10.5133L67.8199 9.91602H83.32V13.671C83.32 13.671 82.9147 13.9451 82.4459 13.9491H73.8631L73.3466 13.3134V13.9491H71.6539V12.8638C71.6539 12.8638 71.4227 13.0153 70.9228 13.0153H70.3466V13.9491H67.7837L67.3262 13.339L66.8617 13.9491H62.6182Z" fill="white"/>
<path d="M57.6318 6.87588L58.5948 4.63086H60.2602L60.8067 5.88843V4.63086H62.8768L63.2022 5.53979L63.5176 4.63086H72.8106V5.08781C72.8106 5.08781 73.2991 4.63086 74.1019 4.63086L77.1172 4.6414L77.6542 5.88251V4.63086H79.3867L79.8635 5.34378V4.63086H81.6118V8.66395H79.8635L79.4066 7.94872V8.66395H76.8612L76.6052 8.02819H75.921L75.6692 8.66395H73.943C73.2522 8.66395 72.8106 8.21633 72.8106 8.21633V8.66395H70.2079L69.6914 8.02819V8.66395H60.0134L59.7577 8.02819H59.0756L58.8216 8.66395H57.6318V6.87588Z" fill="white"/>
<path d="M58.9346 5.12793L57.6357 8.14778H58.4814L58.721 7.54307H60.1142L60.3526 8.14778H61.2168L59.9193 5.12793H58.9346ZM59.4151 5.83074L59.8398 6.88744H58.9892L59.4151 5.83074Z" fill="#016FD0"/>
<path d="M61.3066 8.1468V5.12695L62.5083 5.13142L63.2072 7.07843L63.8894 5.12695H65.0815V8.1468H64.3265V5.92165L63.5262 8.1468H62.8641L62.0616 5.92165V8.1468H61.3066Z" fill="#016FD0"/>
<path d="M65.5986 8.14683V5.12695H68.0622V5.80245H66.3615V6.31901H68.0225V6.95478H66.3615V7.4912H68.0622V8.14683H65.5986Z" fill="#016FD0"/>
<path d="M68.498 5.12793V8.14781H69.253V7.07496H69.5709L70.4761 8.14781H71.3987L70.4053 7.03522C70.813 7.00082 71.2336 6.65091 71.2336 6.10765C71.2336 5.47217 70.7348 5.12793 70.1781 5.12793H68.498ZM69.253 5.80343H70.116C70.323 5.80343 70.4736 5.96537 70.4736 6.12131C70.4736 6.32194 70.2785 6.43919 70.1272 6.43919H69.253V5.80343Z" fill="#016FD0"/>
<path d="M72.3148 8.14683H71.5439V5.12695H72.3148V8.14683Z" fill="#016FD0"/>
<path d="M74.1419 8.14683H73.9755C73.1704 8.14683 72.6816 7.51256 72.6816 6.64931C72.6816 5.76473 73.165 5.12695 74.1816 5.12695H75.0161V5.84219H74.1511C73.7384 5.84219 73.4465 6.16427 73.4465 6.65676C73.4465 7.2416 73.7803 7.48723 74.2611 7.48723H74.4598L74.1419 8.14683Z" fill="#016FD0"/>
<path d="M75.7852 5.12793L74.4863 8.14778H75.3319L75.5716 7.54307H76.9648L77.2032 8.14778H78.0674L76.7698 5.12793H75.7852ZM76.2657 5.83074L76.6904 6.88744H75.8398L76.2657 5.83074Z" fill="#016FD0"/>
<path d="M78.1553 8.14683V5.12695H79.1151L80.3407 7.02431V5.12695H81.0957V8.14683H80.1669L78.9102 6.19981V8.14683H78.1553Z" fill="#016FD0"/>
<path d="M63.1357 13.432V10.4121H65.5993V11.0876H63.8987V11.6042H65.5596V12.2399H63.8987V12.7764H65.5993V13.432H63.1357Z" fill="#016FD0"/>
<path d="M75.2061 13.432V10.4121H77.6696V11.0876H75.969V11.6042H77.622V12.2399H75.969V12.7764H77.6696V13.432H75.2061Z" fill="#016FD0"/>
<path d="M65.6946 13.432L66.8941 11.9407L65.666 10.4121H66.6172L67.3485 11.3571L68.0824 10.4121H68.9963L67.7844 11.922L68.9861 13.432H68.0351L67.3249 12.5019L66.6321 13.432H65.6946Z" fill="#016FD0"/>
<path d="M69.0752 10.4131V13.433H69.85V12.4793H70.6447C71.3172 12.4793 71.8269 12.1226 71.8269 11.4288C71.8269 10.8541 71.4271 10.4131 70.7428 10.4131H69.0752ZM69.85 11.096H70.687C70.9042 11.096 71.0595 11.2292 71.0595 11.4437C71.0595 11.6453 70.905 11.7914 70.6845 11.7914H69.85V11.096Z" fill="#016FD0"/>
<path d="M72.1553 10.4121V13.432H72.9102V12.3591H73.2281L74.1333 13.432H75.0559L74.0626 12.3194C74.4703 12.285 74.8908 11.9351 74.8908 11.3918C74.8908 10.7563 74.392 10.4121 73.8353 10.4121H72.1553ZM72.9102 11.0876H73.7732C73.9803 11.0876 74.1309 11.2495 74.1309 11.4055C74.1309 11.6061 73.9357 11.7234 73.7844 11.7234H72.9102V11.0876Z" fill="#016FD0"/>
<path d="M78.0197 13.432V12.7764H79.5306C79.7542 12.7764 79.851 12.6555 79.851 12.523C79.851 12.3961 79.7545 12.2677 79.5306 12.2677H78.8478C78.2544 12.2677 77.9238 11.9062 77.9238 11.3633C77.9238 10.8791 78.2265 10.4121 79.1084 10.4121H80.5786L80.2608 11.0916H78.9892C78.7462 11.0916 78.6713 11.2191 78.6713 11.3409C78.6713 11.4661 78.7638 11.6042 78.9495 11.6042H79.6647C80.3263 11.6042 80.6134 11.9794 80.6134 12.4709C80.6134 12.9992 80.2935 13.432 79.6287 13.432H78.0197Z" fill="#016FD0"/>
<path d="M80.7902 13.432V12.7764H82.3011C82.5247 12.7764 82.6215 12.6555 82.6215 12.523C82.6215 12.3961 82.525 12.2677 82.3011 12.2677H81.6184C81.0249 12.2677 80.6943 11.9062 80.6943 11.3633C80.6943 10.8791 80.997 10.4121 81.8789 10.4121H83.3191L83.0313 11.0916H81.7597C81.5167 11.0916 81.4419 11.2191 81.4419 11.3409C81.4419 11.4661 81.5343 11.6042 81.72 11.6042H82.4352C83.0968 11.6042 83.3839 11.9794 83.3839 12.4709C83.3839 12.9992 83.064 13.432 82.3992 13.432H80.7902Z" fill="#016FD0"/>
</g>
<rect x="86.1973" y="0.5" width="25.6359" height="17.5789" rx="1.46491" fill="#232342"/>
<path d="M97.3672 18.0788L111.833 13.8672V16.6139C111.833 17.4229 111.177 18.0788 110.368 18.0788H97.3672Z" fill="#FD6020"/>
<path d="M96.7266 7.54004C97.0049 7.54008 97.3229 7.57915 97.5615 7.73633V8.52344C97.3626 8.28756 97.0447 8.13004 96.7266 8.12988C96.09 8.16923 95.5727 8.72013 95.6123 9.34961V9.42871C95.6123 10.0583 96.1291 10.5301 96.7656 10.5303C97.084 10.5303 97.3626 10.3728 97.5615 10.1367V10.9238C97.2831 11.0418 97.0047 11.1211 96.6865 11.1211C95.6917 11.1211 94.8955 10.2944 94.8955 9.31055C94.8956 8.28744 95.692 7.46134 96.7266 7.54004ZM102.974 9.90137L103.929 7.54004H104.645L103.173 11.1211H102.814L101.342 7.54004H102.059L102.974 9.90137ZM93.543 7.46094C93.9009 7.46101 94.2587 7.61858 94.5371 7.85449L94.1797 8.32715C94.0205 8.16974 93.821 8.05176 93.6221 8.05176C93.3834 8.01252 93.1843 8.20925 93.1445 8.44531C93.1447 8.64178 93.2645 8.72063 93.6621 8.87793C94.4579 9.19274 94.6565 9.42915 94.6963 9.90137V10.0186C94.6565 10.6482 94.1396 11.1204 93.5029 11.0811C93.0254 11.0811 92.5483 10.845 92.3096 10.4121L92.7471 9.97949C92.8664 10.2549 93.1446 10.452 93.4629 10.4521H93.5029C93.7416 10.4521 93.9804 10.2158 93.9805 9.94043C93.9805 9.78302 93.9006 9.66464 93.7812 9.58594C93.6222 9.50727 93.4628 9.42898 93.3037 9.38965C92.6673 9.19294 92.4689 8.91726 92.4688 8.44531V8.40527C92.5087 7.85449 92.986 7.42159 93.543 7.46094ZM89.4043 7.54004C90.359 7.57959 91.1148 8.36635 91.0752 9.31055C91.0751 9.82199 90.8363 10.2943 90.4385 10.6484C90.0805 10.9238 89.6426 11.0812 89.2051 11.042H88.2109V7.54004H89.4043ZM92.0303 11.042H91.3545V7.54004H92.0303V11.042ZM106.873 8.12988H105.64V8.91699H106.834V9.50781H105.64V10.4521H106.873V11.042H104.963V7.54004H106.873V8.12988ZM108.306 7.54004C109.102 7.54004 109.539 7.89448 109.539 8.56348C109.579 9.07484 109.221 9.50726 108.743 9.58594L109.817 11.042H108.982L108.067 9.62598H107.987V11.042H107.311V7.54004H108.306ZM89.0859 8.12988H88.8867V10.4521H89.0859C89.4041 10.4913 89.7624 10.3734 90.001 10.1768C90.2396 9.9407 90.3593 9.62552 90.3594 9.27148C90.3594 8.95691 90.2394 8.64229 90.001 8.40625C89.7624 8.2096 89.4041 8.09073 89.0859 8.12988ZM107.987 9.15332H108.187C108.624 9.15321 108.823 8.95646 108.823 8.60254C108.823 8.28781 108.624 8.09093 108.187 8.09082H107.987V9.15332Z" fill="white"/>
<path fill-rule="evenodd" clip-rule="evenodd" d="M99.5922 7.45801C98.5974 7.45801 97.7617 8.24506 97.7617 9.26823C97.7617 10.252 98.5576 11.0784 99.5922 11.1178C100.627 11.1572 101.423 10.3307 101.462 9.30758C101.423 8.28441 100.627 7.45801 99.5922 7.45801V7.45801Z" fill="#FD6020"/>
</svg>
