<svg width="27" height="16" viewBox="0 0 27 16" fill="none" xmlns="http://www.w3.org/2000/svg">
<rect y="1.06641" width="23.4667" height="14.9333" rx="1.06667" fill="#DBDBDB"/>
<rect y="3.2002" width="23.4667" height="3.2" fill="#B0B0B0"/>
<rect x="2.13379" y="8.5332" width="19.2" height="2.13333" rx="1.06667" fill="white"/>
<circle cx="21.3333" cy="5.33333" r="5.33333" fill="#4C4C4C"/>
<path d="M18.9336 3.33333V7.13281H18.2018V4.22917L17.4779 4.50781V3.89844L18.8529 3.33333H18.9336ZM20.668 4.90104H21.0247C21.115 4.90104 21.1897 4.88021 21.2487 4.83854C21.3077 4.79514 21.3511 4.73437 21.3789 4.65625C21.4067 4.57639 21.4206 4.48351 21.4206 4.3776C21.4206 4.28385 21.4076 4.20139 21.3815 4.13021C21.3555 4.05729 21.3155 4 21.2617 3.95833C21.2079 3.91493 21.1402 3.89323 21.0586 3.89323C20.9961 3.89323 20.9371 3.91059 20.8815 3.94531C20.8277 3.9783 20.7852 4.02691 20.7539 4.09115C20.7227 4.15538 20.707 4.23177 20.707 4.32031H19.9753C19.9753 4.11198 20.0221 3.93056 20.1159 3.77604C20.2114 3.62153 20.3398 3.50174 20.5013 3.41667C20.6628 3.32986 20.8416 3.28646 21.0378 3.28646C21.2582 3.28646 21.4518 3.32726 21.6185 3.40885C21.7852 3.49045 21.9154 3.61198 22.0091 3.77344C22.1029 3.93316 22.1497 4.13108 22.1497 4.36719C22.1497 4.48872 22.1272 4.6059 22.082 4.71875C22.0369 4.82986 21.9709 4.93056 21.8841 5.02083C21.7973 5.11111 21.6914 5.18229 21.5664 5.23437C21.4414 5.28646 21.2999 5.3125 21.1419 5.3125H20.668V4.90104ZM20.668 5.49219V5.09375H21.1419C21.3207 5.09375 21.4761 5.11719 21.6081 5.16406C21.74 5.2092 21.8494 5.27517 21.9362 5.36198C22.0247 5.44878 22.0907 5.55208 22.1341 5.67187C22.1775 5.78993 22.1992 5.92187 22.1992 6.06771C22.1992 6.24479 22.1697 6.40278 22.1107 6.54167C22.0516 6.68056 21.9692 6.79774 21.8633 6.89323C21.7574 6.98872 21.6341 7.06163 21.4935 7.11198C21.3529 7.16059 21.2001 7.1849 21.0352 7.1849C20.898 7.1849 20.7635 7.16319 20.6315 7.11979C20.5013 7.07639 20.3841 7.00955 20.2799 6.91927C20.1758 6.82899 20.0933 6.71528 20.0326 6.57812C19.9718 6.44097 19.9414 6.27865 19.9414 6.09115H20.6706C20.6706 6.1849 20.6871 6.2691 20.7201 6.34375C20.7548 6.41667 20.8008 6.47396 20.8581 6.51562C20.9154 6.55729 20.9805 6.57812 21.0534 6.57812C21.1385 6.57812 21.2122 6.55642 21.2747 6.51302C21.3372 6.46962 21.385 6.40885 21.418 6.33073C21.451 6.2526 21.4674 6.16233 21.4674 6.0599C21.4674 5.92448 21.4501 5.81597 21.4154 5.73437C21.3806 5.65104 21.3303 5.59028 21.2643 5.55208C21.1984 5.51215 21.1185 5.49219 21.0247 5.49219H20.668ZM23.3711 5.41406L22.7878 5.26823L22.9779 3.34115H24.8086V3.96615H23.5768L23.5065 4.78125C23.5464 4.75347 23.6055 4.72309 23.6836 4.6901C23.7635 4.65712 23.852 4.64062 23.9492 4.64062C24.1072 4.64062 24.2461 4.66927 24.3659 4.72656C24.4874 4.78385 24.5898 4.86719 24.6732 4.97656C24.7565 5.08594 24.8199 5.21962 24.8633 5.3776C24.9067 5.53559 24.9284 5.71441 24.9284 5.91406C24.9284 6.08247 24.9058 6.24306 24.8607 6.39583C24.8155 6.54861 24.7461 6.68403 24.6523 6.80208C24.5586 6.92014 24.4423 7.01389 24.3034 7.08333C24.1662 7.15104 24.0039 7.1849 23.8164 7.1849C23.6758 7.1849 23.5404 7.16059 23.4102 7.11198C23.2799 7.06337 23.1628 6.99132 23.0586 6.89583C22.9544 6.79861 22.8711 6.68229 22.8086 6.54687C22.7461 6.40972 22.7148 6.25347 22.7148 6.07812H23.4362C23.4449 6.18056 23.4648 6.2691 23.4961 6.34375C23.5291 6.4184 23.5725 6.47656 23.6263 6.51823C23.6801 6.55816 23.7426 6.57812 23.8138 6.57812C23.885 6.57812 23.9449 6.56076 23.9935 6.52604C24.0438 6.48958 24.0838 6.43924 24.1133 6.375C24.1428 6.31076 24.1636 6.23611 24.1758 6.15104C24.1897 6.06424 24.1966 5.97135 24.1966 5.8724C24.1966 5.7717 24.1879 5.68056 24.1706 5.59896C24.1532 5.51736 24.1263 5.44705 24.0898 5.38802C24.0534 5.32899 24.0056 5.28385 23.9466 5.2526C23.8893 5.22135 23.8225 5.20573 23.7461 5.20573C23.6385 5.20573 23.5577 5.2283 23.5039 5.27344C23.4518 5.31684 23.4076 5.36372 23.3711 5.41406Z" fill="white"/>
</svg>
