<svg width="64" height="64" viewBox="0 0 64 64" fill="none" xmlns="http://www.w3.org/2000/svg">
<path d="M0 32C0 14.3269 14.3269 0 32 0C49.6731 0 64 14.3269 64 32C64 49.6731 49.6731 64 32 64C14.3269 64 0 49.6731 0 32Z" fill="#3CB371" fill-opacity="0.1"/>
<path d="M18.6666 28.6666C18.6667 27.1829 19.1168 25.7341 19.9575 24.5115C20.7982 23.289 21.99 22.3502 23.3754 21.8192C24.7609 21.2882 26.2748 21.1899 27.7173 21.5374C29.1598 21.8848 30.4629 22.6617 31.4546 23.7653C31.5245 23.84 31.6089 23.8995 31.7027 23.9402C31.7965 23.9809 31.8977 24.002 32 24.002C32.1022 24.002 32.2034 23.9809 32.2972 23.9402C32.391 23.8995 32.4754 23.84 32.5453 23.7653C33.5339 22.6545 34.8373 21.8711 36.2821 21.5194C37.727 21.1678 39.2446 21.2644 40.6331 21.7966C42.0216 22.3288 43.2151 23.2712 44.0548 24.4985C44.8944 25.7258 45.3404 27.1797 45.3333 28.6666C45.3333 31.72 43.3333 34 41.3333 36L34.0106 43.084C33.7622 43.3693 33.4559 43.5985 33.112 43.7564C32.7682 43.9142 32.3947 43.9971 32.0163 43.9995C31.638 44.0019 31.2635 43.9238 30.9177 43.7703C30.5719 43.6168 30.2627 43.3915 30.0106 43.1093L22.6666 36C20.6666 34 18.6666 31.7333 18.6666 28.6666Z" stroke="#3CB371" stroke-width="2.66667" stroke-linecap="round" stroke-linejoin="round"/>
</svg>
