<svg width="64" height="64" viewBox="0 0 64 64" fill="none" xmlns="http://www.w3.org/2000/svg">
<path d="M0 32C0 14.3269 14.3269 0 32 0C49.6731 0 64 14.3269 64 32C64 49.6731 49.6731 64 32 64C14.3269 64 0 49.6731 0 32Z" fill="#3CB371" fill-opacity="0.1"/>
<path d="M36.636 33.1868L38.656 44.5548C38.6786 44.6886 38.6598 44.8262 38.6021 44.9491C38.5445 45.072 38.4506 45.1744 38.3332 45.2425C38.2158 45.3106 38.0804 45.3413 37.945 45.3304C37.8097 45.3195 37.681 45.2675 37.576 45.1814L32.8026 41.5988C32.5722 41.4266 32.2923 41.3336 32.0046 41.3336C31.717 41.3336 31.4371 41.4266 31.2066 41.5988L26.4253 45.1801C26.3204 45.266 26.1918 45.3179 26.0566 45.3288C25.9215 45.3398 25.7862 45.3092 25.6689 45.2413C25.5515 45.1733 25.4577 45.0712 25.3999 44.9485C25.3421 44.8259 25.323 44.6885 25.3453 44.5548L27.364 33.1868" stroke="#3CB371" stroke-width="2.66667" stroke-linecap="round" stroke-linejoin="round"/>
<path d="M32 34.6667C36.4183 34.6667 40 31.085 40 26.6667C40 22.2485 36.4183 18.6667 32 18.6667C27.5817 18.6667 24 22.2485 24 26.6667C24 31.085 27.5817 34.6667 32 34.6667Z" stroke="#3CB371" stroke-width="2.66667" stroke-linecap="round" stroke-linejoin="round"/>
</svg>
